<?xml version="1.0"?><svg version="1.2" baseProfile="tiny-ps" viewBox="0 0 300 300" xmlns="http://www.w3.org/2000/svg" xmlns:xlink="http://www.w3.org/1999/xlink"><title>BookLead</title><g><g fill="#fff" transform="matrix(.1 0 0 -.1 0 300)"><path d="M0 1500V0h3000v3000H0V1500z"/></g><g fill="#dcaff5" transform="matrix(.1 0 0 -.1 0 300)"><path d="M0 1500V0h3000v3000H0V1500zm1534 855c17-3 43-15 58-27l28-20 22-41 21-42v-46l-1-46-12-24c-18-35-51-69-83-85l-27-15-69-8-70-9-55-25-55-25-45-42-46-43-33-66-32-66v-180l18-45c10-24 34-66 53-92l35-46 52-35c63-41 101-55 192-68l70-10 36-23 36-24 18-39 19-38-1-46-1-45-15-31c-21-40-67-78-113-93l-37-13-71 6-71 5-78 25-78 25-70 42-70 41-64 61-65 60-46 69-45 69-29 79-29 79-11 86-12 86 11 84 11 84 25 73c14 40 43 104 65 141l40 67 63 63 62 63 75 47 75 47 80 26 80 27 65 8c66 7 72 7 124-5zm191-22c28-9 80-31 117-49l66-33 61-51c34-28 82-77 107-108l45-57 39-80c21-44 46-107 56-140l16-60 5-280 5-280-34 31c-18 18-47 39-65 48l-32 16h-55c-69 0-95-10-145-55l-40-36-3 268-3 268-28 57-28 57-60 55-59 55-49 17-48 18 34 29c19 17 43 47 54 68l19 38v105l-21 43-21 43-26 21-27 21 35-7c19-3 58-13 85-22zm377-1083c46-13 93-52 115-93l16-32v-101l-13-24c-18-37-51-70-85-87l-30-16h-100l-32 16c-41 22-80 69-93 115-12 46-12 48 0 94l11 37 26 32 27 32 41 18c46 21 66 23 117 9z"/></g><g fill="#b85feb" transform="matrix(.1 0 0 -.1 0 300)"><path d="M0 1500V0h3000v3000H0V1500zm1555 851 41-18 26-31c14-17 32-48 38-68l12-36-5-40-5-39-25-38-25-38-37-17c-20-10-63-22-96-26-33-5-81-16-107-24l-47-16-56-44-57-45-35-70-36-71-7-56-7-57 13-56c7-31 24-78 38-104l26-49 53-48 53-49 55-20c31-12 81-24 113-27l57-7 37-18c43-22 72-57 88-105l12-35-6-43-7-43-25-34c-14-19-42-44-62-56l-37-23h-151l-59 15c-33 8-103 36-155 62l-95 46-95 96-96 96-36 70c-20 39-47 104-59 145l-24 75v250l24 75c72 232 224 399 443 487 67 27 177 51 243 52l40 1 40-19zm218-31c31-12 89-43 129-69l73-49 57-58c99-104 163-224 192-366l16-77v-513l-25 30-25 30-43 21-43 21h-95l-37-16c-20-8-51-29-69-46l-32-31-3 264-3 265-33 66-33 67-49 44-50 45-54 22-54 23 43 41 43 41 11 40c14 50 14 80 0 129l-11 38-39 43-40 43 59-13c32-8 84-23 115-35zm350-1074c18-7 46-29 64-47l32-34 12-47 13-46-13-41-12-41-30-35-30-34-44-17-44-16-47 7-46 7-44 40-43 40-12 35-11 35 5 44 5 44 25 39 25 38 44 22 43 21h38c21 0 52-6 70-14z"/></g><g fill="#8e01e0" transform="matrix(.1 0 0 -.1 0 300)"><path d="M0 1500V0h3000v3000H0V1500zm1553 857 32-14 37-41 37-41 7-36c3-20 4-54 1-76l-5-40-27-34-26-35-37-19-37-18-57-7c-32-3-84-16-115-28l-58-21-61-61-61-61-22-60-23-60 4-90 4-90 33-63 34-62 38-35c21-19 61-46 88-60l51-25 77-11c87-12 116-24 155-66 33-35 48-73 48-122v-37l-22-44-23-45-43-30-44-30-86 1-87 2-77 25c-96 31-184 80-269 150l-65 54-49 64c-61 81-99 163-126 269l-21 84 4 115 5 116 26 80 26 80 38 64 38 65 65 70 65 69 73 48c113 74 244 117 365 118l58 1 32-13zm136-7c220-61 387-203 487-413l34-73 15-69 15-70v-537l-28 29c-15 17-43 38-62 49l-35 18h-120l-42-22c-22-12-50-33-61-47l-21-26-3 263-3 263-27 58c-50 107-124 176-222 207l-39 12 32 20 31 20 27 45 26 45 1 57v56l-18 35c-10 19-32 50-49 68-36 38-34 38 62 12zm444-1106c45-23 66-44 88-86l19-37v-85l-21-44-21-43-40-26-39-26-53-5-53-4-41 21-41 21-28 37-28 36v145l30 38c17 20 46 45 65 55l35 19h96l32-16z"/></g></g></svg>